<svg width="1005" height="1195" viewBox="0 0 1005 1195" fill="none" xmlns="http://www.w3.org/2000/svg">
<path d="M-47.5191 791.65C-179.296 719.461 -342.905 746.866 -408.237 769.593C-410.322 876.54 -413.241 1092.04 -408.237 1098.46C-403.233 1104.87 382.006 1101.13 774 1098.46V994.183C690.597 930.014 611.364 875.872 367.411 903.946C181.072 925.389 117.202 881.888 -47.5191 791.65Z" fill="white" fill-opacity="0.04"/>
<path d="M78.9455 935.576C-55.8309 888.08 -217.937 918.571 -282.143 939.754C-279.448 1021.63 -272.738 1186.53 -267.456 1191.14C-262.174 1195.75 521.561 1147.09 912.768 1122.19L908.111 1042.48C821.985 998.291 740.469 961.525 498.184 997.214C313.12 1024.47 247.416 994.947 78.9455 935.576Z" fill="white" fill-opacity="0.04"/>
<path d="M67.717 300.628C-181.378 289.022 -232.029 434.672 -312.663 401.033C-316.295 240.237 -361.478 -76.0645 -355.383 -85.7541C-349.288 -95.4437 518.569 -76.9445 1001.04 -76.1239L1002.08 80.6685C900.07 177.837 981.445 203.301 611.035 198.465C349.355 195.048 346.54 313.62 67.717 300.628Z" fill="white" fill-opacity="0.04"/>
<path d="M-103.283 237.628C-352.378 226.022 -403.029 371.672 -483.663 338.033C-487.295 177.237 -532.478 -139.064 -526.383 -148.754C-520.288 -158.444 347.569 -139.944 830.037 -139.124L831.077 17.6685C729.07 114.837 810.445 140.301 440.035 135.465C178.355 132.048 175.54 250.62 -103.283 237.628Z" fill="white" fill-opacity="0.04"/>
</svg>
